<svg xmlns="http://www.w3.org/2000/svg" version="1.1" xmlns:xlink="http://www.w3.org/1999/xlink" xmlns:svgjs="http://svgjs.dev/svgjs" width="1500" height="935" viewBox="0 0 1500 935"><g transform="matrix(1,0,0,1,-0.9090909090909918,0.3785425101214628)"><svg viewBox="0 0 396 247" data-background-color="#ffffff" preserveAspectRatio="xMidYMid meet" height="935" width="1500" xmlns="http://www.w3.org/2000/svg" xmlns:xlink="http://www.w3.org/1999/xlink"><g id="tight-bounds" transform="matrix(1,0,0,1,0.2400000000000091,-0.09999999999999432)"><svg viewBox="0 0 395.52 247.2" height="247.2" width="395.52"><g><svg></svg></g><g><svg viewBox="0 0 395.52 247.2" height="247.2" width="395.52"><mask id="648f2419-fda5-406b-b83e-dd3a03208f88"><rect width="395.52" height="247.2" fill="white"></rect><g transform="matrix(1,0,0,1,126.56540114421144,37.08)" id="clone"><svg viewBox="0 0 142.3891977115771 173.04" height="173.04" width="142.3891977115771"><g><svg viewBox="0 0 142.3891977115771 173.04" height="173.04" width="142.3891977115771"><g><svg viewBox="0 0 142.3891977115771 173.04" height="173.04" width="142.3891977115771"><g><svg viewBox="0 0 142.3891977115771 173.04" height="173.04" width="142.3891977115771"><g id="SvgjsG4428"><svg viewBox="0 0 142.3891977115771 173.04" height="173.04" width="142.3891977115771" id="SvgjsSvg4427"><g><svg viewBox="0 0 142.3891977115771 173.04" height="173.04" width="142.3891977115771"><g transform="matrix(1,0,0,1,0,0)"><svg width="142.3891977115771" viewBox="-0.8500000000000001 -53.87857142857143 50.6 61.27754915744343" height="173.04" data-palette-color="#fe4f32"><path d="M44.1-6.1L44.1-6.1Q45.15-7 45.95-6.83 46.75-6.65 46.75-5.3L46.75-5.3Q46.75-4.9 46.63-4.55 46.5-4.2 46.25-3.88 46-3.55 45.75-3.28 45.5-3 45.08-2.7 44.65-2.4 44.4-2.2 44.15-2 43.73-1.73 43.3-1.45 43.15-1.35L43.15-1.35Q41.5-0.2 39.6 0.55L39.6 0.55Q38.55 1.25 36.4 1.35L36.4 1.35Q35.7 1.4 35.1 1.35L35.1 1.35Q34.7 1.35 34.6 1.35L34.6 1.35Q31.15 1.25 29.4 0.28 27.65-0.7 23.3-4.85L23.3-4.85Q17.7-10.35 16.95-10L16.95-10Q16.3-9.75 14.78-7.48 13.25-5.2 13.25-4.4L13.25-4.4Q13.25-3.65 11.95-1.5L11.95-1.5Q10.6 0.5 10.15 2L10.15 2Q9.75 3.65 8.58 4.2 7.4 4.75 6.33 3.78 5.25 2.8 5.33 2 5.4 1.2 7-2.1L7-2.1Q8.35-5.05 8.33-5.95 8.3-6.85 6.75-6.85L6.75-6.85Q5.5-6.85 3.9-8.2L3.9-8.2Q2.75-9.05 2.45-9.73 2.15-10.4 2.15-11.8L2.15-11.8Q2.3-17.35 3.45-19.4L3.45-19.4Q3.95-20.3 4.65-20.48 5.35-20.65 8.3-20.45L8.3-20.45Q12.55-20.15 13.35-19.75L13.35-19.75Q15.55-18.9 17.8-22.48 20.05-26.05 20.05-30.3L20.05-30.3Q20.05-33.55 19.28-33.8 18.5-34.05 16.7-31.25L16.7-31.25Q15.3-29.15 13.6-28.55L13.6-28.55Q12.6-28.3 11.35-28.55 10.1-28.8 9.03-29.45 7.95-30.1 7.55-30.95L7.55-30.95Q7-32 7.15-34.45 7.3-36.9 7.95-38.6L7.95-38.6Q8.7-40.25 8.7-40.83 8.7-41.4 11.15-44.25L11.15-44.25Q13.45-46.9 15.7-48.45 17.95-50 21.05-50.65L21.05-50.65Q22.85-51.05 23.9-50.75L23.9-50.75Q25.65-50.25 26.55-48.15L26.55-48.15Q28.4-43.9 27.45-36.1L27.45-36.1Q27-32.4 26.4-31.85L26.4-31.85Q25.95-31.4 25.95-29.15L25.95-29.15Q25.95-27.35 24.65-24.6L24.65-24.6Q23.3-21.85 21.5-20L21.5-20Q19.8-18.2 20.6-17.35L20.6-17.35Q20.85-17.2 21.28-17.2 21.7-17.2 24.85-19.95L24.85-19.95Q28-22.7 31.65-26.35L31.65-26.35Q34.95-29.65 36.9-32.38 38.85-35.1 38.85-36.4L38.85-36.4Q39-37.65 39.4-38.35L39.4-38.35Q39.8-39 41.13-39 42.45-39 43.35-38.35L43.35-38.35Q44.65-37.4 43.38-34.27 42.1-31.15 38.9-27.4L38.9-27.4Q36.05-24.05 30.95-19.33 25.85-14.6 24.65-14.1L24.65-14.1Q23.3-13.7 23.73-12.15 24.15-10.6 26.2-8.55L26.2-8.55Q28.8-6.1 28.8-5.35L28.8-5.35Q28.8-4.7 29.95-3.65L29.95-3.65Q30.25-3.35 30.65-3.15 31.05-2.95 31.63-2.85 32.2-2.75 32.65-2.68 33.1-2.6 33.83-2.65 34.55-2.7 34.95-2.73 35.35-2.75 36.18-2.88 37-3 37.23-3.05 37.45-3.1 38.25-3.25L38.25-3.25 39.05-3.4Q39.8-3.55 40.45-3.8 41.1-4.05 41.78-4.48 42.45-4.9 42.88-5.2 43.3-5.5 44.1-6.1ZM15.7-37.05L15.7-37.05Q18.9-40.1 17.2-41.8L17.2-41.8Q16.45-42.55 15.5-42.5 14.55-42.45 14-41.8L14-41.8Q13.1-40.65 12.33-38.53 11.55-36.4 11.8-35.85L11.8-35.85Q12.55-33.85 15.7-37.05ZM9.47-12.43Q10.5-12.8 11.28-13.45 12.05-14.1 11.95-14.5L11.95-14.5Q11.7-15.25 10.28-15.33 8.85-15.4 8.2-14.75L8.2-14.75Q7.65-14.2 7.55-13.43 7.45-12.65 8.1-12.3L8.1-12.3Q8.45-12.05 9.47-12.43Z" opacity="1" transform="matrix(1,0,0,1,0,0)" fill="black" class="wordmark-text-0" id="SvgjsPath4426" stroke-width="5" stroke="black" stroke-linejoin="round"></path></svg></g></svg></g></svg></g></svg></g></svg></g></svg></g></svg></g></mask><g mask="url(#648f2419-fda5-406b-b83e-dd3a03208f88)"><g><path d="M260.101 177.977v0c2.221-1.904 4.177-2.676 5.87-2.316 1.692 0.381 2.538 1.999 2.538 4.854v0c0 0.846-0.127 1.639-0.381 2.38-0.275 0.74-0.677 1.449-1.206 2.126-0.529 0.698-1.058 1.332-1.586 1.903-0.529 0.592-1.237 1.206-2.126 1.84-0.909 0.635-1.629 1.163-2.157 1.586-0.529 0.423-1.237 0.92-2.126 1.492-0.909 0.592-1.523 0.994-1.84 1.205v0c-3.49 2.432-7.244 4.442-11.262 6.028v0c-2.221 1.481-5.605 2.327-10.153 2.538v0c-1.481 0.106-2.855 0.106-4.124 0v0c-0.846 0-1.375 0-1.586 0v0c-7.297-0.212-12.796-1.343-16.498-3.395-3.701-2.073-10.152-7.498-19.352-16.275v0c-11.844-11.633-18.56-17.079-20.146-16.339v0c-1.375 0.529-3.67 3.194-6.885 7.995-3.236 4.822-4.854 8.08-4.854 9.772v0c0 1.586-1.375 4.653-4.124 9.2v0c-2.855 4.23-4.759 7.931-5.711 11.104v0c-0.846 3.49-2.506 5.816-4.981 6.98-2.496 1.163-4.875 0.719-7.138-1.332-2.284-2.073-3.342-3.955-3.173-5.648 0.148-1.692 1.914-6.028 5.298-13.007v0c2.855-6.239 4.262-10.311 4.22-12.215-0.063-1.904-1.734-2.855-5.013-2.855v0c-2.644 0-5.658-1.428-9.042-4.283v0c-2.432-1.798-3.966-3.416-4.6-4.854-0.635-1.417-0.952-3.606-0.952-6.567v0c0.317-11.739 1.692-19.776 4.125-24.112v0c1.058-1.904 2.327-3.046 3.807-3.426 1.481-0.36 5.341-0.328 11.58 0.095v0c8.989 0.635 14.329 1.375 16.021 2.221v0c4.653 1.798 9.359-1.089 14.118-8.662 4.759-7.551 7.138-15.821 7.139-24.809v0c0-6.874-0.814-10.575-2.443-11.104-1.65-0.529-4.378 2.168-8.186 8.09v0c-2.961 4.442-6.239 7.297-9.835 8.566v0c-2.115 0.529-4.494 0.529-7.138 0-2.644-0.529-5.097-1.481-7.36-2.855-2.284-1.375-3.849-2.961-4.696-4.759v0c-1.163-2.221-1.586-5.922-1.269-11.104 0.317-5.182 1.163-9.571 2.538-13.167v0c1.586-3.49 2.379-5.848 2.38-7.074 0-1.206 2.591-4.822 7.773-10.851v0c4.865-5.605 9.676-10.047 14.435-13.324 4.759-3.278 10.417-5.605 16.973-6.98v0c3.807-0.846 6.821-0.952 9.042-0.317v0c3.701 1.058 6.504 3.807 8.407 8.248v0c3.913 8.989 4.865 21.732 2.856 38.23v0c-0.952 7.826-2.062 12.32-3.331 13.483v0c-0.952 0.952-1.428 3.807-1.428 8.566v0c0 3.807-1.375 8.619-4.124 14.436v0c-2.855 5.816-6.187 10.681-9.994 14.593v0c-3.596 3.807-4.547 6.61-2.855 8.408v0c0.529 0.317 1.248 0.476 2.157 0.476 0.888 0 4.664-2.908 11.326-8.725v0c6.662-5.816 13.854-12.585 21.574-20.304v0c6.98-6.98 12.532-13.357 16.656-19.131 4.124-5.753 6.187-10.004 6.186-12.754v0c0.317-2.644 0.899-4.706 1.745-6.186v0c0.846-1.375 2.676-2.062 5.489-2.063 2.792 0 5.14 0.687 7.043 2.063v0c2.75 2.009 2.781 6.324 0.095 12.944-2.707 6.599-7.445 13.864-14.213 21.795v0c-6.028 7.085-14.435 15.62-25.222 25.603-10.787 10.004-17.449 15.535-19.987 16.593v0c-2.855 0.846-3.828 2.908-2.919 6.186 0.888 3.278 3.5 7.085 7.836 11.422v0c5.499 5.182 8.249 8.566 8.249 10.152v0c0 1.375 1.216 3.173 3.648 5.393v0c0.635 0.635 1.375 1.163 2.221 1.587 0.846 0.423 1.882 0.74 3.109 0.951 1.206 0.212 2.284 0.391 3.236 0.54 0.952 0.169 2.2 0.201 3.744 0.095 1.523-0.106 2.707-0.19 3.553-0.254 0.846-0.042 2.147-0.201 3.902-0.476 1.734-0.254 2.845-0.434 3.332-0.539 0.465-0.106 1.544-0.317 3.236-0.635v0l2.538-0.476c1.586-0.317 3.067-0.74 4.441-1.269 1.375-0.529 2.781-1.248 4.22-2.157 1.417-0.888 2.58-1.65 3.49-2.284 0.888-0.635 2.179-1.586 3.87-2.856zM170 79.786v0c6.768-6.451 8.354-11.474 4.759-15.07v0c-1.586-1.586-3.384-2.327-5.394-2.221-2.009 0.106-3.596 0.846-4.758 2.221v0c-1.904 2.432-3.67 5.89-5.299 10.375-1.65 4.505-2.21 7.339-1.681 8.502v0c1.586 4.23 5.711 2.961 12.373-3.807zM150.235 157.895c2.179-0.783 4.093-1.861 5.742-3.236 1.629-1.375 2.337-2.485 2.126-3.331v0c-0.529-1.586-2.295-2.464-5.298-2.634-3.025-0.148-5.224 0.465-6.599 1.841v0c-1.163 1.163-1.851 2.559-2.063 4.187-0.212 1.65 0.37 2.845 1.745 3.585v0c0.74 0.529 2.189 0.391 4.347-0.412z" fill="#fe4f32" fill-rule="nonzero" stroke="none" stroke-width="1" stroke-linecap="butt" stroke-linejoin="miter" stroke-miterlimit="10" stroke-dasharray="" stroke-dashoffset="0" font-family="none" font-weight="none" font-size="none" text-anchor="none" style="mix-blend-mode: normal" data-fill-palette-color="tertiary"></path></g></g><g transform="matrix(1,0,0,1,126.56540114421144,37.08)"><svg viewBox="0 0 142.3891977115771 173.04" height="173.04" width="142.3891977115771"><g><svg viewBox="0 0 142.3891977115771 173.04" height="173.04" width="142.3891977115771"><g><svg viewBox="0 0 142.3891977115771 173.04" height="173.04" width="142.3891977115771"><g><svg viewBox="0 0 142.3891977115771 173.04" height="173.04" width="142.3891977115771"><g id="textblocktransform"><svg viewBox="0 0 142.3891977115771 173.04" height="173.04" width="142.3891977115771" id="textblock"><g><svg viewBox="0 0 142.3891977115771 173.04" height="173.04" width="142.3891977115771"><g transform="matrix(1,0,0,1,0,0)"><svg width="142.3891977115771" viewBox="-0.8500000000000001 -53.87857142857143 50.6 61.27754915744343" height="173.04" data-palette-color="#fe4f32"><path d="M44.1-6.1L44.1-6.1Q45.15-7 45.95-6.83 46.75-6.65 46.75-5.3L46.75-5.3Q46.75-4.9 46.63-4.55 46.5-4.2 46.25-3.88 46-3.55 45.75-3.28 45.5-3 45.08-2.7 44.65-2.4 44.4-2.2 44.15-2 43.73-1.73 43.3-1.45 43.15-1.35L43.15-1.35Q41.5-0.2 39.6 0.55L39.6 0.55Q38.55 1.25 36.4 1.35L36.4 1.35Q35.7 1.4 35.1 1.35L35.1 1.35Q34.7 1.35 34.6 1.35L34.6 1.35Q31.15 1.25 29.4 0.28 27.65-0.7 23.3-4.85L23.3-4.85Q17.7-10.35 16.95-10L16.95-10Q16.3-9.75 14.78-7.48 13.25-5.2 13.25-4.4L13.25-4.4Q13.25-3.65 11.95-1.5L11.95-1.5Q10.6 0.5 10.15 2L10.15 2Q9.75 3.65 8.58 4.2 7.4 4.75 6.33 3.78 5.25 2.8 5.33 2 5.4 1.2 7-2.1L7-2.1Q8.35-5.05 8.33-5.95 8.3-6.85 6.75-6.85L6.75-6.85Q5.5-6.85 3.9-8.2L3.9-8.2Q2.75-9.05 2.45-9.73 2.15-10.4 2.15-11.8L2.15-11.8Q2.3-17.35 3.45-19.4L3.45-19.4Q3.95-20.3 4.65-20.48 5.35-20.65 8.3-20.45L8.3-20.45Q12.55-20.15 13.35-19.75L13.35-19.75Q15.55-18.9 17.8-22.48 20.05-26.05 20.05-30.3L20.05-30.3Q20.05-33.55 19.28-33.8 18.5-34.05 16.7-31.25L16.7-31.25Q15.3-29.15 13.6-28.55L13.6-28.55Q12.6-28.3 11.35-28.55 10.1-28.8 9.03-29.45 7.95-30.1 7.55-30.95L7.55-30.95Q7-32 7.15-34.45 7.3-36.9 7.95-38.6L7.95-38.6Q8.7-40.25 8.7-40.83 8.7-41.4 11.15-44.25L11.15-44.25Q13.45-46.9 15.7-48.45 17.95-50 21.05-50.65L21.05-50.65Q22.85-51.05 23.9-50.75L23.9-50.75Q25.65-50.25 26.55-48.15L26.55-48.15Q28.4-43.9 27.45-36.1L27.45-36.1Q27-32.4 26.4-31.85L26.4-31.85Q25.95-31.4 25.95-29.15L25.95-29.15Q25.95-27.35 24.65-24.6L24.65-24.6Q23.3-21.85 21.5-20L21.5-20Q19.8-18.2 20.6-17.35L20.6-17.35Q20.85-17.2 21.28-17.2 21.7-17.2 24.85-19.95L24.85-19.95Q28-22.7 31.65-26.35L31.65-26.35Q34.95-29.65 36.9-32.38 38.85-35.1 38.85-36.4L38.85-36.4Q39-37.65 39.4-38.35L39.4-38.35Q39.8-39 41.13-39 42.45-39 43.35-38.35L43.35-38.35Q44.65-37.4 43.38-34.27 42.1-31.15 38.9-27.4L38.9-27.4Q36.05-24.05 30.95-19.33 25.85-14.6 24.65-14.1L24.65-14.1Q23.3-13.7 23.73-12.15 24.15-10.6 26.2-8.55L26.2-8.55Q28.8-6.1 28.8-5.35L28.8-5.35Q28.8-4.7 29.95-3.65L29.95-3.65Q30.25-3.35 30.65-3.15 31.05-2.95 31.63-2.85 32.2-2.75 32.65-2.68 33.1-2.6 33.83-2.65 34.55-2.7 34.95-2.73 35.35-2.75 36.18-2.88 37-3 37.23-3.05 37.45-3.1 38.25-3.25L38.25-3.25 39.05-3.4Q39.8-3.55 40.45-3.8 41.1-4.05 41.78-4.48 42.45-4.9 42.88-5.2 43.3-5.5 44.1-6.1ZM15.7-37.05L15.7-37.05Q18.9-40.1 17.2-41.8L17.2-41.8Q16.45-42.55 15.5-42.5 14.55-42.45 14-41.8L14-41.8Q13.1-40.65 12.33-38.53 11.55-36.4 11.8-35.85L11.8-35.85Q12.55-33.85 15.7-37.05ZM9.47-12.43Q10.5-12.8 11.28-13.45 12.05-14.1 11.95-14.5L11.95-14.5Q11.7-15.25 10.28-15.33 8.85-15.4 8.2-14.75L8.2-14.75Q7.65-14.2 7.55-13.43 7.45-12.65 8.1-12.3L8.1-12.3Q8.45-12.05 9.47-12.43Z" opacity="1" transform="matrix(1,0,0,1,0,0)" fill="#fe4f32" class="wordmark-text-0" data-fill-palette-color="primary" id="text-0"></path></svg></g></svg></g></svg></g></svg></g></svg></g></svg></g></svg></g></svg></g><defs></defs></svg><rect width="395.52" height="247.2" fill="none" stroke="none" visibility="hidden"></rect></g></svg></g></svg>